<svg xmlns="http://www.w3.org/2000/svg" x="0px" y="0px" width="100" height="100" viewBox="0 0 100 100">
<path fill="#f9e65c" d="M82,29.429v41.143C82,76.857,76.857,82,70.571,82H29.429C23.143,82,18,76.857,18,70.571V29.429	C18,23.143,23.143,18,29.429,18h41.143C76.857,18,82,23.143,82,29.429z"></path><path fill="#1f212b" d="M70.571,83H29.429C22.575,83,17,77.424,17,70.571V29.429C17,22.576,22.575,17,29.429,17h41.143	C77.425,17,83,22.576,83,29.429v41.143C83,77.424,77.425,83,70.571,83z M29.429,19C23.679,19,19,23.678,19,29.429v41.143	C19,76.322,23.679,81,29.429,81h41.143C76.321,81,81,76.322,81,70.571V29.429C81,23.678,76.321,19,70.571,19H29.429z"></path><path fill="#1f212b" d="M51.5,78h-22c-4.136,0-7.5-3.364-7.5-7.5v-20c0-0.276,0.224-0.5,0.5-0.5s0.5,0.224,0.5,0.5v20	c0,3.584,2.916,6.5,6.5,6.5h22c0.276,0,0.5,0.224,0.5,0.5S51.776,78,51.5,78z"></path><path fill="#1f212b" d="M22.5,46c-0.276,0-0.5-0.224-0.5-0.5v-16c0-4.136,3.364-7.5,7.5-7.5h12c0.276,0,0.5,0.224,0.5,0.5	S41.776,23,41.5,23h-12c-3.584,0-6.5,2.916-6.5,6.5v16C23,45.776,22.776,46,22.5,46z"></path><path fill="#1f212b" d="M77.5,33c-0.276,0-0.5-0.224-0.5-0.5v-3c0-3.584-2.916-6.5-6.5-6.5h-25c-0.276,0-0.5-0.224-0.5-0.5	s0.224-0.5,0.5-0.5h25c4.136,0,7.5,3.364,7.5,7.5v3C78,32.776,77.776,33,77.5,33z"></path><path fill="#1f212b" d="M77.5,52c-0.276,0-0.5-0.224-0.5-0.5v-6c0-0.276,0.224-0.5,0.5-0.5s0.5,0.224,0.5,0.5v6	C78,51.776,77.776,52,77.5,52z"></path><path fill="#1f212b" d="M77.5,42c-0.276,0-0.5-0.224-0.5-0.5v-5c0-0.276,0.224-0.5,0.5-0.5s0.5,0.224,0.5,0.5v5	C78,41.776,77.776,42,77.5,42z"></path><path fill="#7c8a9e" d="M59,52c-3.866,0-7,3.134-7,7v23l30-30H59z"></path><path fill="#1f212b" d="M52,83c-0.129,0-0.259-0.025-0.383-0.076C51.243,82.769,51,82.404,51,82V59c0-4.411,3.589-8,8-8h23	c0.404,0,0.77,0.244,0.924,0.617c0.155,0.374,0.069,0.804-0.217,1.09l-30,30C52.516,82.898,52.26,83,52,83z M59,53	c-3.309,0-6,2.691-6,6v20.586L79.586,53H59z"></path>
</svg>
